<mxfile host="app.diagrams.net" modified="2022-11-22T02:11:37.821Z" agent="5.0 (Windows)" etag="MtRnpH7EcyRNL1EUfEma" version="20.5.3" type="github">
  <diagram id="nhZoGWwR1IvOvr1_NBgF" name="PÃ¡gina-1">
    <mxGraphModel dx="1633" dy="796" grid="1" gridSize="10" guides="1" tooltips="1" connect="1" arrows="1" fold="1" page="1" pageScale="1" pageWidth="827" pageHeight="1169" math="0" shadow="0">
      <root>
        <mxCell id="0" />
        <mxCell id="1" parent="0" />
        <mxCell id="YT4VNNQ23dSSfyn9WDV7-214" value="" style="rounded=0;whiteSpace=wrap;html=1;shadow=0;dashed=0;strokeColor=default;fontFamily=Helvetica;fontSize=12;fontColor=default;fillColor=#FFFFFF;" vertex="1" parent="1">
          <mxGeometry x="480" y="930" width="130" height="20" as="geometry" />
        </mxCell>
        <mxCell id="YT4VNNQ23dSSfyn9WDV7-213" value="" style="shape=process;whiteSpace=wrap;html=1;backgroundOutline=1;rounded=1;shadow=0;dashed=0;strokeColor=default;fontFamily=Helvetica;fontSize=12;fontColor=default;fillColor=#FFFFFF;" vertex="1" parent="1">
          <mxGeometry x="590" y="860" width="720" height="90" as="geometry" />
        </mxCell>
        <mxCell id="YT4VNNQ23dSSfyn9WDV7-208" value="" style="rounded=0;whiteSpace=wrap;html=1;shadow=0;dashed=0;strokeColor=default;fontFamily=Helvetica;fontSize=12;fontColor=default;fillColor=#FFFFFF;" vertex="1" parent="1">
          <mxGeometry x="1115.5" y="735" width="34.5" height="11" as="geometry" />
        </mxCell>
        <mxCell id="YT4VNNQ23dSSfyn9WDV7-209" value="" style="rounded=0;whiteSpace=wrap;html=1;shadow=0;dashed=0;strokeColor=default;fontFamily=Helvetica;fontSize=12;fontColor=default;fillColor=#FFFFFF;" vertex="1" parent="1">
          <mxGeometry x="1096.5" y="735" width="19" height="11" as="geometry" />
        </mxCell>
        <mxCell id="YT4VNNQ23dSSfyn9WDV7-212" value="" style="rounded=0;whiteSpace=wrap;html=1;shadow=0;dashed=0;strokeColor=default;fontFamily=Helvetica;fontSize=12;fontColor=default;fillColor=#FFFFFF;" vertex="1" parent="1">
          <mxGeometry x="1092.5" y="730" width="13.5" height="20.5" as="geometry" />
        </mxCell>
        <mxCell id="YT4VNNQ23dSSfyn9WDV7-205" value="" style="rounded=0;whiteSpace=wrap;html=1;shadow=0;dashed=0;strokeColor=default;fontFamily=Helvetica;fontSize=12;fontColor=default;fillColor=#FFFFFF;" vertex="1" parent="1">
          <mxGeometry x="1239.5" y="854.5" width="20" height="11" as="geometry" />
        </mxCell>
        <mxCell id="YT4VNNQ23dSSfyn9WDV7-199" value="" style="rounded=0;whiteSpace=wrap;html=1;shadow=0;dashed=0;strokeColor=default;fontFamily=Helvetica;fontSize=12;fontColor=default;fillColor=#FFFFFF;" vertex="1" parent="1">
          <mxGeometry x="1193" y="854.5" width="20" height="11" as="geometry" />
        </mxCell>
        <mxCell id="YT4VNNQ23dSSfyn9WDV7-200" value="" style="rounded=0;whiteSpace=wrap;html=1;shadow=0;dashed=0;strokeColor=default;fontFamily=Helvetica;fontSize=12;fontColor=default;fillColor=#FFFFFF;" vertex="1" parent="1">
          <mxGeometry x="1209" y="854.5" width="20" height="11" as="geometry" />
        </mxCell>
        <mxCell id="YT4VNNQ23dSSfyn9WDV7-192" value="" style="triangle;whiteSpace=wrap;html=1;rounded=1;shadow=0;dashed=0;strokeColor=default;fontFamily=Helvetica;fontSize=12;fontColor=default;fillColor=#FFFFFF;rotation=-90;arcSize=0;" vertex="1" parent="1">
          <mxGeometry x="1051.5" y="787.5" width="64" height="65" as="geometry" />
        </mxCell>
        <mxCell id="YT4VNNQ23dSSfyn9WDV7-191" value="" style="rounded=1;whiteSpace=wrap;html=1;shadow=0;dashed=0;strokeColor=default;fontFamily=Helvetica;fontSize=12;fontColor=default;fillColor=#FFFFFF;arcSize=32;" vertex="1" parent="1">
          <mxGeometry x="1071" y="719" width="25" height="123" as="geometry" />
        </mxCell>
        <mxCell id="YT4VNNQ23dSSfyn9WDV7-187" value="" style="rounded=0;whiteSpace=wrap;html=1;shadow=0;dashed=0;strokeColor=default;fontFamily=Helvetica;fontSize=12;fontColor=default;fillColor=#FFFFFF;" vertex="1" parent="1">
          <mxGeometry x="1003.2099999999999" y="788" width="13.6" height="14" as="geometry" />
        </mxCell>
        <mxCell id="YT4VNNQ23dSSfyn9WDV7-184" value="" style="rounded=1;whiteSpace=wrap;html=1;shadow=0;dashed=0;strokeColor=default;fontFamily=Helvetica;fontSize=12;fontColor=default;fillColor=#FFFFFF;rotation=-45;" vertex="1" parent="1">
          <mxGeometry x="1016.98" y="718.24" width="25.19" height="10" as="geometry" />
        </mxCell>
        <mxCell id="YT4VNNQ23dSSfyn9WDV7-179" value="" style="rounded=0;whiteSpace=wrap;html=1;shadow=0;dashed=0;strokeColor=default;fontFamily=Helvetica;fontSize=12;fontColor=default;fillColor=#FFFFFF;" vertex="1" parent="1">
          <mxGeometry x="999.21" y="778.5" width="10" height="7" as="geometry" />
        </mxCell>
        <mxCell id="YT4VNNQ23dSSfyn9WDV7-180" value="" style="rounded=0;whiteSpace=wrap;html=1;shadow=0;dashed=0;strokeColor=default;fontFamily=Helvetica;fontSize=12;fontColor=default;fillColor=#FFFFFF;" vertex="1" parent="1">
          <mxGeometry x="1003.2099999999999" y="775" width="13.6" height="14" as="geometry" />
        </mxCell>
        <mxCell id="YT4VNNQ23dSSfyn9WDV7-147" value="" style="group" vertex="1" connectable="0" parent="1">
          <mxGeometry x="930" y="531" width="70" height="149" as="geometry" />
        </mxCell>
        <mxCell id="YT4VNNQ23dSSfyn9WDV7-163" value="" style="rounded=0;whiteSpace=wrap;html=1;shadow=0;dashed=0;strokeColor=default;fontFamily=Helvetica;fontSize=12;fontColor=default;fillColor=#FFFFFF;" vertex="1" parent="YT4VNNQ23dSSfyn9WDV7-147">
          <mxGeometry x="-11.5" y="32" width="21" height="11" as="geometry" />
        </mxCell>
        <mxCell id="YT4VNNQ23dSSfyn9WDV7-162" value="" style="html=1;shadow=0;dashed=0;align=center;verticalAlign=middle;shape=mxgraph.arrows2.bendArrow;dy=7.3;dx=0;notch=0;arrowHead=14.6;rounded=1;fillColor=#FFFFFF;points=[[0,1,0,0,0],[0.01,0.4,0,0,0],[0.04,0.18,0,0,0],[0.07,1,0,0,0],[0.16,0.29,0,0,0],[0.16,0.64,0,0,0],[0.16,1,0,0,0],[0.42,0.14,0,0,0],[0.42,0.28,0,0,0],[0.68,0,0,0,0],[0.68,0.14,0,0,0],[0.68,0.28,0,0,0],[0.68,0.42,0,0,0],[1,0.21,0,0,0]];" vertex="1" parent="YT4VNNQ23dSSfyn9WDV7-147">
          <mxGeometry x="43" y="29" width="27" height="44" as="geometry" />
        </mxCell>
        <mxCell id="YT4VNNQ23dSSfyn9WDV7-161" value="" style="html=1;shadow=0;dashed=0;align=center;verticalAlign=middle;shape=mxgraph.arrows2.bendArrow;dy=7.3;dx=0;notch=0;arrowHead=14.6;rounded=1;fillColor=#FFFFFF;points=[[0,1,0,0,0],[0.01,0.4,0,0,0],[0.04,0.18,0,0,0],[0.07,1,0,0,0],[0.16,0.29,0,0,0],[0.16,0.64,0,0,0],[0.16,1,0,0,0],[0.42,0.14,0,0,0],[0.42,0.28,0,0,0],[0.68,0,0,0,0],[0.68,0.14,0,0,0],[0.68,0.28,0,0,0],[0.68,0.42,0,0,0],[1,0.21,0,0,0]];direction=east;flipH=1;" vertex="1" parent="YT4VNNQ23dSSfyn9WDV7-147">
          <mxGeometry y="30" width="27" height="44" as="geometry" />
        </mxCell>
        <mxCell id="YT4VNNQ23dSSfyn9WDV7-30" value="" style="rounded=1;whiteSpace=wrap;html=1;" vertex="1" parent="YT4VNNQ23dSSfyn9WDV7-147">
          <mxGeometry x="31.5" y="5" width="6" height="10" as="geometry" />
        </mxCell>
        <mxCell id="YT4VNNQ23dSSfyn9WDV7-142" value="" style="shape=trapezoid;perimeter=trapezoidPerimeter;whiteSpace=wrap;html=1;fixedSize=1;rounded=1;shadow=0;dashed=0;strokeColor=default;fontFamily=Helvetica;fontSize=12;fontColor=default;fillColor=#FFFFFF;arcSize=0;size=10.5;" vertex="1" parent="YT4VNNQ23dSSfyn9WDV7-147">
          <mxGeometry x="9.5" y="13" width="50" height="12.75" as="geometry" />
        </mxCell>
        <mxCell id="YT4VNNQ23dSSfyn9WDV7-2" value="" style="rounded=1;whiteSpace=wrap;html=1;rotation=-90;" vertex="1" parent="YT4VNNQ23dSSfyn9WDV7-147">
          <mxGeometry x="-15" y="64" width="100" height="70" as="geometry" />
        </mxCell>
        <mxCell id="YT4VNNQ23dSSfyn9WDV7-29" value="" style="rounded=1;whiteSpace=wrap;html=1;arcSize=50;" vertex="1" parent="YT4VNNQ23dSSfyn9WDV7-147">
          <mxGeometry x="11.5" width="47" height="5" as="geometry" />
        </mxCell>
        <mxCell id="YT4VNNQ23dSSfyn9WDV7-141" value="" style="shape=or;whiteSpace=wrap;html=1;rounded=1;shadow=0;dashed=0;strokeColor=default;fontFamily=Helvetica;fontSize=12;fontColor=default;fillColor=#FFFFFF;rotation=-90;" vertex="1" parent="YT4VNNQ23dSSfyn9WDV7-147">
          <mxGeometry x="31.25" y="16.25" width="7.5" height="59.5" as="geometry" />
        </mxCell>
        <mxCell id="YT4VNNQ23dSSfyn9WDV7-143" value="" style="rounded=0;whiteSpace=wrap;html=1;shadow=0;dashed=0;strokeColor=default;fontFamily=Helvetica;fontSize=12;fontColor=default;fillColor=#FFFFFF;" vertex="1" parent="YT4VNNQ23dSSfyn9WDV7-147">
          <mxGeometry x="21.5" y="13" width="8.5" height="13.5" as="geometry" />
        </mxCell>
        <mxCell id="YT4VNNQ23dSSfyn9WDV7-144" value="" style="rounded=0;whiteSpace=wrap;html=1;shadow=0;dashed=0;strokeColor=default;fontFamily=Helvetica;fontSize=12;fontColor=default;fillColor=#FFFFFF;" vertex="1" parent="YT4VNNQ23dSSfyn9WDV7-147">
          <mxGeometry x="38.75" y="13" width="8.5" height="13.5" as="geometry" />
        </mxCell>
        <mxCell id="YT4VNNQ23dSSfyn9WDV7-146" value="" style="rounded=0;whiteSpace=wrap;html=1;shadow=0;dashed=0;strokeColor=default;fontFamily=Helvetica;fontSize=12;fontColor=default;fillColor=#FFFFFF;" vertex="1" parent="YT4VNNQ23dSSfyn9WDV7-147">
          <mxGeometry x="21.5" y="29" width="25" height="6" as="geometry" />
        </mxCell>
        <mxCell id="YT4VNNQ23dSSfyn9WDV7-3" value="" style="rounded=0;whiteSpace=wrap;html=1;" vertex="1" parent="YT4VNNQ23dSSfyn9WDV7-147">
          <mxGeometry x="19" y="34" width="32" height="9" as="geometry" />
        </mxCell>
        <mxCell id="YT4VNNQ23dSSfyn9WDV7-155" value="" style="rounded=0;whiteSpace=wrap;html=1;shadow=0;dashed=0;strokeColor=default;fontFamily=Helvetica;fontSize=12;fontColor=default;fillColor=#FFFFFF;" vertex="1" parent="1">
          <mxGeometry x="899.55" y="790" width="13.6" height="14" as="geometry" />
        </mxCell>
        <mxCell id="YT4VNNQ23dSSfyn9WDV7-140" value="" style="group" vertex="1" connectable="0" parent="1">
          <mxGeometry x="670" y="684" width="130" height="184" as="geometry" />
        </mxCell>
        <mxCell id="YT4VNNQ23dSSfyn9WDV7-134" value="" style="rounded=0;whiteSpace=wrap;html=1;shadow=0;dashed=0;strokeColor=default;fontFamily=Helvetica;fontSize=12;fontColor=default;fillColor=#FFFFFF;" vertex="1" parent="YT4VNNQ23dSSfyn9WDV7-140">
          <mxGeometry x="31" y="130" width="67" height="54" as="geometry" />
        </mxCell>
        <mxCell id="YT4VNNQ23dSSfyn9WDV7-135" value="" style="shape=or;whiteSpace=wrap;html=1;rounded=1;shadow=0;dashed=0;strokeColor=default;fontFamily=Helvetica;fontSize=12;fontColor=default;fillColor=#FFFFFF;rotation=90;" vertex="1" parent="YT4VNNQ23dSSfyn9WDV7-140">
          <mxGeometry x="52.379999999999995" y="69.13" width="25.75" height="122.5" as="geometry" />
        </mxCell>
        <mxCell id="YT4VNNQ23dSSfyn9WDV7-136" value="" style="rounded=1;whiteSpace=wrap;html=1;shadow=0;dashed=0;strokeColor=default;fontFamily=Helvetica;fontSize=12;fontColor=default;fillColor=#FFFFFF;" vertex="1" parent="YT4VNNQ23dSSfyn9WDV7-140">
          <mxGeometry y="41" width="130" height="81" as="geometry" />
        </mxCell>
        <mxCell id="YT4VNNQ23dSSfyn9WDV7-137" value="" style="shape=or;whiteSpace=wrap;html=1;rounded=1;shadow=0;dashed=0;strokeColor=default;fontFamily=Helvetica;fontSize=12;fontColor=default;fillColor=#FFFFFF;rotation=-90;" vertex="1" parent="YT4VNNQ23dSSfyn9WDV7-140">
          <mxGeometry x="58.5" y="-21" width="11" height="115" as="geometry" />
        </mxCell>
        <mxCell id="YT4VNNQ23dSSfyn9WDV7-139" value="" style="rounded=0;whiteSpace=wrap;html=1;shadow=0;dashed=0;strokeColor=default;fontFamily=Helvetica;fontSize=12;fontColor=default;fillColor=#FFFFFF;" vertex="1" parent="YT4VNNQ23dSSfyn9WDV7-140">
          <mxGeometry x="63.5" y="11" width="4" height="10" as="geometry" />
        </mxCell>
        <mxCell id="YT4VNNQ23dSSfyn9WDV7-42" value="" style="ellipse;whiteSpace=wrap;html=1;aspect=fixed;fillColor=#FFFFFF;" vertex="1" parent="YT4VNNQ23dSSfyn9WDV7-140">
          <mxGeometry x="58" width="15" height="15" as="geometry" />
        </mxCell>
        <mxCell id="YT4VNNQ23dSSfyn9WDV7-138" value="" style="shape=or;whiteSpace=wrap;html=1;rounded=1;shadow=0;dashed=0;strokeColor=default;fontFamily=Helvetica;fontSize=12;fontColor=default;fillColor=#FFFFFF;rotation=-90;" vertex="1" parent="YT4VNNQ23dSSfyn9WDV7-140">
          <mxGeometry x="58" y="-15" width="14" height="80" as="geometry" />
        </mxCell>
        <mxCell id="YT4VNNQ23dSSfyn9WDV7-9" value="" style="rounded=0;whiteSpace=wrap;html=1;" vertex="1" parent="1">
          <mxGeometry x="901.55" y="604" width="8.12" height="20" as="geometry" />
        </mxCell>
        <mxCell id="YT4VNNQ23dSSfyn9WDV7-36" value="" style="edgeStyle=orthogonalEdgeStyle;rounded=0;orthogonalLoop=1;jettySize=auto;html=1;" edge="1" parent="1" source="YT4VNNQ23dSSfyn9WDV7-31" target="YT4VNNQ23dSSfyn9WDV7-35">
          <mxGeometry relative="1" as="geometry" />
        </mxCell>
        <mxCell id="YT4VNNQ23dSSfyn9WDV7-37" value="" style="group" vertex="1" connectable="0" parent="1">
          <mxGeometry x="935" y="793" width="145" height="30" as="geometry" />
        </mxCell>
        <mxCell id="YT4VNNQ23dSSfyn9WDV7-13" value="" style="shape=or;whiteSpace=wrap;html=1;" vertex="1" parent="YT4VNNQ23dSSfyn9WDV7-37">
          <mxGeometry x="135" y="4" width="10" height="20" as="geometry" />
        </mxCell>
        <mxCell id="YT4VNNQ23dSSfyn9WDV7-14" value="" style="rounded=1;whiteSpace=wrap;html=1;" vertex="1" parent="YT4VNNQ23dSSfyn9WDV7-37">
          <mxGeometry x="126" y="2.5" width="9" height="23" as="geometry" />
        </mxCell>
        <mxCell id="YT4VNNQ23dSSfyn9WDV7-15" value="" style="rounded=0;whiteSpace=wrap;html=1;" vertex="1" parent="YT4VNNQ23dSSfyn9WDV7-37">
          <mxGeometry x="120" y="7" width="5" height="14.17" as="geometry" />
        </mxCell>
        <mxCell id="YT4VNNQ23dSSfyn9WDV7-17" value="" style="rounded=1;whiteSpace=wrap;html=1;" vertex="1" parent="YT4VNNQ23dSSfyn9WDV7-37">
          <mxGeometry x="105" width="15" height="30" as="geometry" />
        </mxCell>
        <mxCell id="YT4VNNQ23dSSfyn9WDV7-18" value="" style="rounded=0;whiteSpace=wrap;html=1;" vertex="1" parent="YT4VNNQ23dSSfyn9WDV7-37">
          <mxGeometry x="39" y="7" width="66" height="15" as="geometry" />
        </mxCell>
        <mxCell id="YT4VNNQ23dSSfyn9WDV7-31" value="" style="ellipse;whiteSpace=wrap;html=1;" vertex="1" parent="YT4VNNQ23dSSfyn9WDV7-37">
          <mxGeometry x="2" y="0.5" width="35" height="28" as="geometry" />
        </mxCell>
        <mxCell id="YT4VNNQ23dSSfyn9WDV7-19" value="" style="rounded=0;whiteSpace=wrap;html=1;" vertex="1" parent="YT4VNNQ23dSSfyn9WDV7-37">
          <mxGeometry x="34" y="4" width="5" height="21" as="geometry" />
        </mxCell>
        <mxCell id="YT4VNNQ23dSSfyn9WDV7-26" value="" style="rounded=0;whiteSpace=wrap;html=1;" vertex="1" parent="YT4VNNQ23dSSfyn9WDV7-37">
          <mxGeometry y="3" width="5" height="21" as="geometry" />
        </mxCell>
        <mxCell id="YT4VNNQ23dSSfyn9WDV7-201" value="" style="shape=cylinder3;whiteSpace=wrap;html=1;boundedLbl=1;backgroundOutline=1;size=3.5769230769229807;fillColor=#33FF33;" vertex="1" parent="YT4VNNQ23dSSfyn9WDV7-37">
          <mxGeometry x="294.12" y="53" width="15.75" height="23" as="geometry" />
        </mxCell>
        <mxCell id="YT4VNNQ23dSSfyn9WDV7-202" value="" style="ellipse;whiteSpace=wrap;html=1;aspect=fixed;fillColor=#33FF33;" vertex="1" parent="YT4VNNQ23dSSfyn9WDV7-37">
          <mxGeometry x="295.49" y="43" width="13" height="13" as="geometry" />
        </mxCell>
        <mxCell id="YT4VNNQ23dSSfyn9WDV7-38" value="" style="group" vertex="1" connectable="0" parent="1">
          <mxGeometry x="770" y="778" width="166" height="95" as="geometry" />
        </mxCell>
        <mxCell id="YT4VNNQ23dSSfyn9WDV7-152" value="" style="rounded=0;whiteSpace=wrap;html=1;shadow=0;dashed=0;strokeColor=default;fontFamily=Helvetica;fontSize=12;fontColor=default;fillColor=#FFFFFF;" vertex="1" parent="YT4VNNQ23dSSfyn9WDV7-38">
          <mxGeometry x="125.21000000000004" y="0.5" width="10" height="7" as="geometry" />
        </mxCell>
        <mxCell id="YT4VNNQ23dSSfyn9WDV7-35" value="" style="rounded=1;whiteSpace=wrap;html=1;fillColor=#FFFFFF;" vertex="1" parent="YT4VNNQ23dSSfyn9WDV7-38">
          <mxGeometry x="-10" y="22" width="176" height="15" as="geometry" />
        </mxCell>
        <mxCell id="YT4VNNQ23dSSfyn9WDV7-34" value="" style="shape=cylinder3;whiteSpace=wrap;html=1;boundedLbl=1;backgroundOutline=1;size=3.5769230769229807;fillColor=#33FF33;" vertex="1" parent="YT4VNNQ23dSSfyn9WDV7-38">
          <mxGeometry x="40.629999999999995" y="10" width="15.75" height="23" as="geometry" />
        </mxCell>
        <mxCell id="YT4VNNQ23dSSfyn9WDV7-33" value="" style="ellipse;whiteSpace=wrap;html=1;aspect=fixed;fillColor=#33FF33;" vertex="1" parent="YT4VNNQ23dSSfyn9WDV7-38">
          <mxGeometry x="42" width="13" height="13" as="geometry" />
        </mxCell>
        <mxCell id="YT4VNNQ23dSSfyn9WDV7-40" value="" style="shape=cylinder3;whiteSpace=wrap;html=1;boundedLbl=1;backgroundOutline=1;size=2.7777777777778283;fillColor=#FFFFFF;rotation=-180;" vertex="1" parent="YT4VNNQ23dSSfyn9WDV7-38">
          <mxGeometry x="8" y="-25" width="13" height="106" as="geometry" />
        </mxCell>
        <mxCell id="YT4VNNQ23dSSfyn9WDV7-130" value="" style="group" vertex="1" connectable="0" parent="YT4VNNQ23dSSfyn9WDV7-38">
          <mxGeometry x="-28" y="-47" width="49" height="28" as="geometry" />
        </mxCell>
        <mxCell id="YT4VNNQ23dSSfyn9WDV7-131" value="" style="rounded=0;whiteSpace=wrap;html=1;shadow=0;dashed=0;strokeColor=default;fontFamily=Helvetica;fontSize=12;fontColor=default;fillColor=#FFFFFF;" vertex="1" parent="YT4VNNQ23dSSfyn9WDV7-130">
          <mxGeometry x="5" y="3" width="28" height="9" as="geometry" />
        </mxCell>
        <mxCell id="YT4VNNQ23dSSfyn9WDV7-132" value="" style="rounded=1;whiteSpace=wrap;html=1;shadow=0;dashed=0;strokeColor=default;fontFamily=Helvetica;fontSize=12;fontColor=default;fillColor=#FFFFFF;" vertex="1" parent="YT4VNNQ23dSSfyn9WDV7-130">
          <mxGeometry width="8.5" height="14" as="geometry" />
        </mxCell>
        <mxCell id="YT4VNNQ23dSSfyn9WDV7-133" value="" style="html=1;shadow=0;dashed=0;align=center;verticalAlign=middle;shape=mxgraph.arrows2.bendArrow;dy=7.3;dx=0;notch=0;arrowHead=14.6;rounded=1;fillColor=#FFFFFF;points=[[0,1,0,0,0],[0.01,0.4,0,0,0],[0.04,0.18,0,0,0],[0.07,1,0,0,0],[0.16,0.29,0,0,0],[0.16,0.64,0,0,0],[0.16,1,0,0,0],[0.42,0.14,0,0,0],[0.42,0.28,0,0,0],[0.68,0,0,0,0],[0.68,0.14,0,0,0],[0.68,0.28,0,0,0],[0.68,0.42,0,0,0],[1,0.21,0,0,0]];rotation=0;flipH=1;" vertex="1" parent="YT4VNNQ23dSSfyn9WDV7-130">
          <mxGeometry x="26" width="23" height="28" as="geometry" />
        </mxCell>
        <mxCell id="YT4VNNQ23dSSfyn9WDV7-151" value="" style="rounded=0;whiteSpace=wrap;html=1;shadow=0;dashed=0;strokeColor=default;fontFamily=Helvetica;fontSize=12;fontColor=default;fillColor=#FFFFFF;" vertex="1" parent="YT4VNNQ23dSSfyn9WDV7-38">
          <mxGeometry x="129.20999999999992" y="-3" width="13.6" height="14" as="geometry" />
        </mxCell>
        <mxCell id="YT4VNNQ23dSSfyn9WDV7-71" value="" style="group" vertex="1" connectable="0" parent="1">
          <mxGeometry x="1065" y="456" width="174.5" height="104" as="geometry" />
        </mxCell>
        <mxCell id="YT4VNNQ23dSSfyn9WDV7-72" value="" style="group" vertex="1" connectable="0" parent="YT4VNNQ23dSSfyn9WDV7-71">
          <mxGeometry width="174.5" height="104" as="geometry" />
        </mxCell>
        <mxCell id="YT4VNNQ23dSSfyn9WDV7-68" value="" style="shape=process;whiteSpace=wrap;html=1;backgroundOutline=1;fillColor=#FFFFFF;size=0.3333333333333333;" vertex="1" parent="YT4VNNQ23dSSfyn9WDV7-72">
          <mxGeometry x="15" y="68.25" width="11" height="35.75" as="geometry" />
        </mxCell>
        <mxCell id="YT4VNNQ23dSSfyn9WDV7-69" value="" style="shape=process;whiteSpace=wrap;html=1;backgroundOutline=1;fillColor=#FFFFFF;size=0.3333333333333333;" vertex="1" parent="YT4VNNQ23dSSfyn9WDV7-72">
          <mxGeometry x="54.5" y="68.25" width="11" height="35.75" as="geometry" />
        </mxCell>
        <mxCell id="YT4VNNQ23dSSfyn9WDV7-70" value="" style="shape=process;whiteSpace=wrap;html=1;backgroundOutline=1;fillColor=#FFFFFF;size=0.3333333333333333;" vertex="1" parent="YT4VNNQ23dSSfyn9WDV7-72">
          <mxGeometry x="92" y="67.25" width="11" height="35.75" as="geometry" />
        </mxCell>
        <mxCell id="YT4VNNQ23dSSfyn9WDV7-64" value="" style="rounded=1;whiteSpace=wrap;html=1;fillColor=#FFFFFF;" vertex="1" parent="YT4VNNQ23dSSfyn9WDV7-72">
          <mxGeometry width="120" height="60" as="geometry" />
        </mxCell>
        <mxCell id="YT4VNNQ23dSSfyn9WDV7-61" value="" style="ellipse;whiteSpace=wrap;html=1;aspect=fixed;fillColor=#FFFFFF;" vertex="1" parent="YT4VNNQ23dSSfyn9WDV7-72">
          <mxGeometry x="81" y="15" width="30" height="30" as="geometry" />
        </mxCell>
        <mxCell id="YT4VNNQ23dSSfyn9WDV7-62" value="" style="ellipse;whiteSpace=wrap;html=1;aspect=fixed;fillColor=#FFFFFF;" vertex="1" parent="YT4VNNQ23dSSfyn9WDV7-72">
          <mxGeometry x="45" y="15" width="30" height="30" as="geometry" />
        </mxCell>
        <mxCell id="YT4VNNQ23dSSfyn9WDV7-60" value="" style="ellipse;whiteSpace=wrap;html=1;aspect=fixed;fillColor=#FFFFFF;" vertex="1" parent="YT4VNNQ23dSSfyn9WDV7-72">
          <mxGeometry x="5" y="14" width="30" height="30" as="geometry" />
        </mxCell>
        <mxCell id="YT4VNNQ23dSSfyn9WDV7-90" value="" style="html=1;shadow=0;dashed=0;align=center;verticalAlign=middle;shape=mxgraph.arrows2.bendArrow;dy=7.3;dx=0;notch=0;arrowHead=14.6;rounded=1;fillColor=#FFFFFF;points=[[0,1,0,0,0],[0.01,0.4,0,0,0],[0.04,0.18,0,0,0],[0.07,1,0,0,0],[0.16,0.29,0,0,0],[0.16,0.64,0,0,0],[0.16,1,0,0,0],[0.42,0.14,0,0,0],[0.42,0.28,0,0,0],[0.68,0,0,0,0],[0.68,0.14,0,0,0],[0.68,0.28,0,0,0],[0.68,0.42,0,0,0],[1,0.21,0,0,0]];flipH=1;" vertex="1" parent="1">
          <mxGeometry x="1140" y="733" width="21.75" height="32" as="geometry" />
        </mxCell>
        <mxCell id="YT4VNNQ23dSSfyn9WDV7-92" value="" style="html=1;shadow=0;dashed=0;align=center;verticalAlign=middle;shape=mxgraph.arrows2.bendArrow;dy=7.3;dx=0;notch=0;arrowHead=14.6;rounded=1;fillColor=#FFFFFF;points=[[0,1,0,0,0],[0.01,0.4,0,0,0],[0.04,0.18,0,0,0],[0.07,1,0,0,0],[0.16,0.29,0,0,0],[0.16,0.64,0,0,0],[0.16,1,0,0,0],[0.42,0.14,0,0,0],[0.42,0.28,0,0,0],[0.68,0,0,0,0],[0.68,0.14,0,0,0],[0.68,0.28,0,0,0],[0.68,0.42,0,0,0],[1,0.21,0,0,0]];" vertex="1" parent="1">
          <mxGeometry x="1100" y="531" width="27" height="44" as="geometry" />
        </mxCell>
        <mxCell id="YT4VNNQ23dSSfyn9WDV7-93" value="" style="html=1;shadow=0;dashed=0;align=center;verticalAlign=middle;shape=mxgraph.arrows2.bendArrow;dy=7.3;dx=0;notch=0;arrowHead=14.6;rounded=1;fillColor=#FFFFFF;points=[[0,1,0,0,0],[0.01,0.4,0,0,0],[0.04,0.18,0,0,0],[0.07,1,0,0,0],[0.16,0.29,0,0,0],[0.16,0.64,0,0,0],[0.16,1,0,0,0],[0.42,0.14,0,0,0],[0.42,0.28,0,0,0],[0.68,0,0,0,0],[0.68,0.14,0,0,0],[0.68,0.28,0,0,0],[0.68,0.42,0,0,0],[1,0.21,0,0,0]];" vertex="1" parent="1">
          <mxGeometry x="898.21" y="561" width="27" height="44" as="geometry" />
        </mxCell>
        <mxCell id="YT4VNNQ23dSSfyn9WDV7-120" value="" style="rounded=0;whiteSpace=wrap;html=1;shadow=0;dashed=0;strokeColor=default;fontFamily=Helvetica;fontSize=12;fontColor=default;fillColor=#FFFFFF;" vertex="1" parent="1">
          <mxGeometry x="740" y="799" width="9" height="16" as="geometry" />
        </mxCell>
        <mxCell id="YT4VNNQ23dSSfyn9WDV7-121" value="" style="rounded=0;whiteSpace=wrap;html=1;shadow=0;dashed=0;strokeColor=default;fontFamily=Helvetica;fontSize=12;fontColor=default;fillColor=#FFFFFF;" vertex="1" parent="1">
          <mxGeometry x="749" y="797" width="5" height="20" as="geometry" />
        </mxCell>
        <mxCell id="YT4VNNQ23dSSfyn9WDV7-123" value="" style="rounded=0;whiteSpace=wrap;html=1;shadow=0;dashed=0;strokeColor=default;fontFamily=Helvetica;fontSize=12;fontColor=default;fillColor=#FFFFFF;" vertex="1" parent="1">
          <mxGeometry x="754" y="799" width="5" height="17" as="geometry" />
        </mxCell>
        <mxCell id="YT4VNNQ23dSSfyn9WDV7-125" value="" style="rounded=1;whiteSpace=wrap;html=1;shadow=0;dashed=0;strokeColor=default;fontFamily=Helvetica;fontSize=12;fontColor=default;fillColor=#FFFFFF;arcSize=50;" vertex="1" parent="1">
          <mxGeometry x="756" y="792.5" width="14" height="30" as="geometry" />
        </mxCell>
        <mxCell id="YT4VNNQ23dSSfyn9WDV7-119" value="" style="group" vertex="1" connectable="0" parent="1">
          <mxGeometry x="484" y="722" width="259.505" height="198" as="geometry" />
        </mxCell>
        <mxCell id="YT4VNNQ23dSSfyn9WDV7-88" value="" style="html=1;shadow=0;dashed=0;align=center;verticalAlign=middle;shape=mxgraph.arrows2.bendArrow;dy=7.3;dx=0;notch=0;arrowHead=14.6;rounded=1;fillColor=#FFFFFF;points=[[0,1,0,0,0],[0.01,0.4,0,0,0],[0.04,0.18,0,0,0],[0.07,1,0,0,0],[0.16,0.29,0,0,0],[0.16,0.64,0,0,0],[0.16,1,0,0,0],[0.42,0.14,0,0,0],[0.42,0.28,0,0,0],[0.68,0,0,0,0],[0.68,0.14,0,0,0],[0.68,0.28,0,0,0],[0.68,0.42,0,0,0],[1,0.21,0,0,0]];" vertex="1" parent="YT4VNNQ23dSSfyn9WDV7-119">
          <mxGeometry x="192.75" y="40" width="27" height="22" as="geometry" />
        </mxCell>
        <mxCell id="YT4VNNQ23dSSfyn9WDV7-114" value="" style="group" vertex="1" connectable="0" parent="YT4VNNQ23dSSfyn9WDV7-119">
          <mxGeometry y="97" width="207.75" height="101" as="geometry" />
        </mxCell>
        <mxCell id="YT4VNNQ23dSSfyn9WDV7-84" value="" style="html=1;shadow=0;dashed=0;align=center;verticalAlign=middle;shape=mxgraph.arrows2.bendArrow;dy=7.3;dx=0;notch=0;arrowHead=14.6;rounded=1;fillColor=#FFFFFF;points=[[0,1,0,0,0],[0.01,0.4,0,0,0],[0.04,0.18,0,0,0],[0.07,1,0,0,0],[0.16,0.29,0,0,0],[0.16,0.64,0,0,0],[0.16,1,0,0,0],[0.42,0.14,0,0,0],[0.42,0.28,0,0,0],[0.68,0,0,0,0],[0.68,0.14,0,0,0],[0.68,0.28,0,0,0],[0.68,0.42,0,0,0],[1,0.21,0,0,0]];" vertex="1" parent="YT4VNNQ23dSSfyn9WDV7-114">
          <mxGeometry x="19" y="29" width="27" height="44" as="geometry" />
        </mxCell>
        <mxCell id="YT4VNNQ23dSSfyn9WDV7-85" value="" style="group" vertex="1" connectable="0" parent="YT4VNNQ23dSSfyn9WDV7-114">
          <mxGeometry y="55" width="106" height="46" as="geometry" />
        </mxCell>
        <mxCell id="YT4VNNQ23dSSfyn9WDV7-45" value="" style="rounded=0;whiteSpace=wrap;html=1;fillColor=#FFFFFF;" vertex="1" parent="YT4VNNQ23dSSfyn9WDV7-85">
          <mxGeometry x="8" y="12" width="7" height="23" as="geometry" />
        </mxCell>
        <mxCell id="YT4VNNQ23dSSfyn9WDV7-47" value="" style="rounded=0;whiteSpace=wrap;html=1;fillColor=#FFFFFF;" vertex="1" parent="YT4VNNQ23dSSfyn9WDV7-85">
          <mxGeometry x="15" y="8" width="6" height="31" as="geometry" />
        </mxCell>
        <mxCell id="YT4VNNQ23dSSfyn9WDV7-48" value="" style="rounded=0;whiteSpace=wrap;html=1;fillColor=#FFFFFF;" vertex="1" parent="YT4VNNQ23dSSfyn9WDV7-85">
          <mxGeometry x="21" y="4" width="9" height="40" as="geometry" />
        </mxCell>
        <mxCell id="YT4VNNQ23dSSfyn9WDV7-51" value="" style="rounded=0;whiteSpace=wrap;html=1;fillColor=#FFFFFF;" vertex="1" parent="YT4VNNQ23dSSfyn9WDV7-85">
          <mxGeometry y="15" width="8" height="16" as="geometry" />
        </mxCell>
        <mxCell id="YT4VNNQ23dSSfyn9WDV7-52" value="" style="rounded=0;whiteSpace=wrap;html=1;fillColor=#FFFFFF;" vertex="1" parent="YT4VNNQ23dSSfyn9WDV7-85">
          <mxGeometry x="30" y="11" width="11" height="25" as="geometry" />
        </mxCell>
        <mxCell id="YT4VNNQ23dSSfyn9WDV7-53" value="" style="shape=or;whiteSpace=wrap;html=1;fillColor=#FFFFFF;" vertex="1" parent="YT4VNNQ23dSSfyn9WDV7-85">
          <mxGeometry x="92" y="3" width="14" height="40" as="geometry" />
        </mxCell>
        <mxCell id="YT4VNNQ23dSSfyn9WDV7-54" value="" style="rounded=1;whiteSpace=wrap;html=1;fillColor=#FFFFFF;" vertex="1" parent="YT4VNNQ23dSSfyn9WDV7-85">
          <mxGeometry x="76" width="16" height="46" as="geometry" />
        </mxCell>
        <mxCell id="YT4VNNQ23dSSfyn9WDV7-57" value="" style="rounded=0;whiteSpace=wrap;html=1;fillColor=#FFFFFF;" vertex="1" parent="YT4VNNQ23dSSfyn9WDV7-85">
          <mxGeometry x="56" y="1" width="21" height="44" as="geometry" />
        </mxCell>
        <mxCell id="YT4VNNQ23dSSfyn9WDV7-58" value="" style="rounded=1;whiteSpace=wrap;html=1;fillColor=#FFFFFF;" vertex="1" parent="YT4VNNQ23dSSfyn9WDV7-85">
          <mxGeometry x="52" width="5" height="46" as="geometry" />
        </mxCell>
        <mxCell id="YT4VNNQ23dSSfyn9WDV7-59" value="" style="shape=or;whiteSpace=wrap;html=1;fillColor=#FFFFFF;rotation=-180;" vertex="1" parent="YT4VNNQ23dSSfyn9WDV7-85">
          <mxGeometry x="38" y="3" width="14" height="40" as="geometry" />
        </mxCell>
        <mxCell id="YT4VNNQ23dSSfyn9WDV7-87" value="" style="html=1;shadow=0;dashed=0;align=center;verticalAlign=middle;shape=mxgraph.arrows2.bendArrow;dy=7.3;dx=0;notch=0;arrowHead=14.6;rounded=1;fillColor=#FFFFFF;points=[[0,1,0,0,0],[0.01,0.4,0,0,0],[0.04,0.18,0,0,0],[0.07,1,0,0,0],[0.16,0.29,0,0,0],[0.16,0.64,0,0,0],[0.16,1,0,0,0],[0.42,0.14,0,0,0],[0.42,0.28,0,0,0],[0.68,0,0,0,0],[0.68,0.14,0,0,0],[0.68,0.28,0,0,0],[0.68,0.42,0,0,0],[1,0.21,0,0,0]];rotation=-180;" vertex="1" parent="YT4VNNQ23dSSfyn9WDV7-114">
          <mxGeometry x="180.75" y="3" width="27" height="41" as="geometry" />
        </mxCell>
        <mxCell id="YT4VNNQ23dSSfyn9WDV7-95" value="" style="rounded=1;whiteSpace=wrap;html=1;shadow=0;dashed=0;strokeColor=default;fontFamily=Helvetica;fontSize=12;fontColor=default;fillColor=#FFFFFF;" vertex="1" parent="YT4VNNQ23dSSfyn9WDV7-114">
          <mxGeometry x="39" y="23.5" width="7" height="25" as="geometry" />
        </mxCell>
        <mxCell id="YT4VNNQ23dSSfyn9WDV7-98" value="" style="rounded=1;whiteSpace=wrap;html=1;shadow=0;dashed=0;strokeColor=default;fontFamily=Helvetica;fontSize=12;fontColor=default;fillColor=#FFFFFF;" vertex="1" parent="YT4VNNQ23dSSfyn9WDV7-114">
          <mxGeometry x="63" y="23.5" width="7" height="25" as="geometry" />
        </mxCell>
        <mxCell id="YT4VNNQ23dSSfyn9WDV7-99" value="" style="rounded=1;whiteSpace=wrap;html=1;shadow=0;dashed=0;strokeColor=default;fontFamily=Helvetica;fontSize=12;fontColor=default;fillColor=#FFFFFF;" vertex="1" parent="YT4VNNQ23dSSfyn9WDV7-114">
          <mxGeometry x="70" y="28.5" width="17" height="17" as="geometry" />
        </mxCell>
        <mxCell id="YT4VNNQ23dSSfyn9WDV7-106" value="" style="shape=mxgraph.pid.pumps.submersible_pump;html=1;pointerEvents=1;align=center;verticalLabelPosition=bottom;verticalAlign=top;dashed=0;rounded=1;shadow=0;strokeColor=default;fontFamily=Helvetica;fontSize=12;fontColor=default;fillColor=#FFFFFF;rotation=-180;" vertex="1" parent="YT4VNNQ23dSSfyn9WDV7-114">
          <mxGeometry x="78.5" y="14" width="33" height="14" as="geometry" />
        </mxCell>
        <mxCell id="YT4VNNQ23dSSfyn9WDV7-107" value="" style="shape=mxgraph.pid.pumps.submersible_pump;html=1;pointerEvents=1;align=center;verticalLabelPosition=bottom;verticalAlign=top;dashed=0;rounded=1;shadow=0;strokeColor=default;fontFamily=Helvetica;fontSize=12;fontColor=default;fillColor=#FFFFFF;rotation=-180;" vertex="1" parent="YT4VNNQ23dSSfyn9WDV7-114">
          <mxGeometry x="37.5" y="8" width="33" height="14" as="geometry" />
        </mxCell>
        <mxCell id="YT4VNNQ23dSSfyn9WDV7-97" value="" style="rounded=1;whiteSpace=wrap;html=1;shadow=0;dashed=0;strokeColor=default;fontFamily=Helvetica;fontSize=12;fontColor=default;fillColor=#FFFFFF;arcSize=44;" vertex="1" parent="YT4VNNQ23dSSfyn9WDV7-114">
          <mxGeometry x="43" y="19.5" width="23" height="33" as="geometry" />
        </mxCell>
        <mxCell id="YT4VNNQ23dSSfyn9WDV7-108" value="" style="rounded=1;whiteSpace=wrap;html=1;shadow=0;dashed=0;strokeColor=default;fontFamily=Helvetica;fontSize=12;fontColor=default;fillColor=#FFFFFF;" vertex="1" parent="YT4VNNQ23dSSfyn9WDV7-114">
          <mxGeometry x="102" y="28" width="28" height="17" as="geometry" />
        </mxCell>
        <mxCell id="YT4VNNQ23dSSfyn9WDV7-109" value="" style="rounded=1;whiteSpace=wrap;html=1;shadow=0;dashed=0;strokeColor=default;fontFamily=Helvetica;fontSize=12;fontColor=default;fillColor=#FFFFFF;" vertex="1" parent="YT4VNNQ23dSSfyn9WDV7-114">
          <mxGeometry x="139.75" y="28" width="17" height="17" as="geometry" />
        </mxCell>
        <mxCell id="YT4VNNQ23dSSfyn9WDV7-110" value="" style="rounded=1;whiteSpace=wrap;html=1;shadow=0;dashed=0;strokeColor=default;fontFamily=Helvetica;fontSize=12;fontColor=default;fillColor=#FFFFFF;" vertex="1" parent="YT4VNNQ23dSSfyn9WDV7-114">
          <mxGeometry x="127" y="25" width="17" height="22" as="geometry" />
        </mxCell>
        <mxCell id="YT4VNNQ23dSSfyn9WDV7-112" value="" style="rounded=1;whiteSpace=wrap;html=1;shadow=0;dashed=0;strokeColor=default;fontFamily=Helvetica;fontSize=12;fontColor=default;fillColor=#FFFFFF;" vertex="1" parent="YT4VNNQ23dSSfyn9WDV7-114">
          <mxGeometry x="156.75" y="28" width="24.25" height="17" as="geometry" />
        </mxCell>
        <mxCell id="YT4VNNQ23dSSfyn9WDV7-113" value="" style="rounded=1;whiteSpace=wrap;html=1;shadow=0;dashed=0;strokeColor=default;fontFamily=Helvetica;fontSize=12;fontColor=default;fillColor=#FFFFFF;" vertex="1" parent="YT4VNNQ23dSSfyn9WDV7-114">
          <mxGeometry x="149" y="25" width="14" height="22" as="geometry" />
        </mxCell>
        <mxCell id="YT4VNNQ23dSSfyn9WDV7-104" value="" style="rounded=1;whiteSpace=wrap;html=1;shadow=0;dashed=0;strokeColor=default;fontFamily=Helvetica;fontSize=12;fontColor=default;fillColor=#FFFFFF;arcSize=50;" vertex="1" parent="YT4VNNQ23dSSfyn9WDV7-114">
          <mxGeometry x="86" y="24" width="18" height="26" as="geometry" />
        </mxCell>
        <mxCell id="YT4VNNQ23dSSfyn9WDV7-115" value="" style="rounded=0;whiteSpace=wrap;html=1;shadow=0;dashed=0;strokeColor=default;fontFamily=Helvetica;fontSize=12;fontColor=default;fillColor=#FFFFFF;" vertex="1" parent="YT4VNNQ23dSSfyn9WDV7-114">
          <mxGeometry x="192.75" y="-36" width="15" height="60" as="geometry" />
        </mxCell>
        <mxCell id="YT4VNNQ23dSSfyn9WDV7-116" value="" style="rounded=1;whiteSpace=wrap;html=1;shadow=0;dashed=0;strokeColor=default;fontFamily=Helvetica;fontSize=12;fontColor=default;fillColor=#FFFFFF;" vertex="1" parent="YT4VNNQ23dSSfyn9WDV7-119">
          <mxGeometry x="219.75" y="35" width="14" height="27" as="geometry" />
        </mxCell>
        <mxCell id="YT4VNNQ23dSSfyn9WDV7-117" value="" style="verticalLabelPosition=bottom;verticalAlign=top;html=1;shape=mxgraph.basic.half_circle;rounded=1;shadow=0;dashed=0;strokeColor=default;fontFamily=Helvetica;fontSize=12;fontColor=default;fillColor=#FFFFFF;rotation=-180;" vertex="1" parent="YT4VNNQ23dSSfyn9WDV7-119">
          <mxGeometry x="244.25" width="15" height="10" as="geometry" />
        </mxCell>
        <mxCell id="YT4VNNQ23dSSfyn9WDV7-118" value="" style="verticalLabelPosition=bottom;verticalAlign=top;html=1;shape=mxgraph.basic.half_circle;rounded=1;shadow=0;dashed=0;strokeColor=default;fontFamily=Helvetica;fontSize=12;fontColor=default;fillColor=#FFFFFF;rotation=0;" vertex="1" parent="YT4VNNQ23dSSfyn9WDV7-119">
          <mxGeometry x="244.5" y="89" width="15" height="10" as="geometry" />
        </mxCell>
        <mxCell id="YT4VNNQ23dSSfyn9WDV7-75" value="" style="shape=tee;whiteSpace=wrap;html=1;fillColor=#FFFFFF;rotation=90;dx=14;dy=15;" vertex="1" parent="YT4VNNQ23dSSfyn9WDV7-119">
          <mxGeometry x="206.13" y="36.379999999999995" width="80.75" height="26" as="geometry" />
        </mxCell>
        <mxCell id="YT4VNNQ23dSSfyn9WDV7-129" value="" style="group" vertex="1" connectable="0" parent="1">
          <mxGeometry x="743" y="731" width="49" height="28" as="geometry" />
        </mxCell>
        <mxCell id="YT4VNNQ23dSSfyn9WDV7-126" value="" style="rounded=0;whiteSpace=wrap;html=1;shadow=0;dashed=0;strokeColor=default;fontFamily=Helvetica;fontSize=12;fontColor=default;fillColor=#FFFFFF;" vertex="1" parent="YT4VNNQ23dSSfyn9WDV7-129">
          <mxGeometry x="5" y="3" width="28" height="9" as="geometry" />
        </mxCell>
        <mxCell id="YT4VNNQ23dSSfyn9WDV7-127" value="" style="rounded=1;whiteSpace=wrap;html=1;shadow=0;dashed=0;strokeColor=default;fontFamily=Helvetica;fontSize=12;fontColor=default;fillColor=#FFFFFF;" vertex="1" parent="YT4VNNQ23dSSfyn9WDV7-129">
          <mxGeometry width="8.5" height="14" as="geometry" />
        </mxCell>
        <mxCell id="YT4VNNQ23dSSfyn9WDV7-89" value="" style="html=1;shadow=0;dashed=0;align=center;verticalAlign=middle;shape=mxgraph.arrows2.bendArrow;dy=7.3;dx=0;notch=0;arrowHead=14.6;rounded=1;fillColor=#FFFFFF;points=[[0,1,0,0,0],[0.01,0.4,0,0,0],[0.04,0.18,0,0,0],[0.07,1,0,0,0],[0.16,0.29,0,0,0],[0.16,0.64,0,0,0],[0.16,1,0,0,0],[0.42,0.14,0,0,0],[0.42,0.28,0,0,0],[0.68,0,0,0,0],[0.68,0.14,0,0,0],[0.68,0.28,0,0,0],[0.68,0.42,0,0,0],[1,0.21,0,0,0]];rotation=0;flipH=1;" vertex="1" parent="YT4VNNQ23dSSfyn9WDV7-129">
          <mxGeometry x="26" width="23" height="28" as="geometry" />
        </mxCell>
        <mxCell id="YT4VNNQ23dSSfyn9WDV7-145" value="" style="shape=or;whiteSpace=wrap;html=1;rounded=1;shadow=0;dashed=0;strokeColor=default;fontFamily=Helvetica;fontSize=12;fontColor=default;fillColor=#FFFFFF;rotation=90;" vertex="1" parent="1">
          <mxGeometry x="963" y="534" width="3" height="49" as="geometry" />
        </mxCell>
        <mxCell id="YT4VNNQ23dSSfyn9WDV7-149" value="" style="triangle;whiteSpace=wrap;html=1;rounded=1;shadow=0;dashed=0;strokeColor=default;fontFamily=Helvetica;fontSize=12;fontColor=default;fillColor=#FFFFFF;arcSize=0;rotation=-90;" vertex="1" parent="1">
          <mxGeometry x="903" y="777" width="5.93" height="22" as="geometry" />
        </mxCell>
        <mxCell id="YT4VNNQ23dSSfyn9WDV7-150" value="" style="rounded=0;whiteSpace=wrap;html=1;shadow=0;dashed=0;strokeColor=default;fontFamily=Helvetica;fontSize=12;fontColor=default;fillColor=#FFFFFF;" vertex="1" parent="1">
          <mxGeometry x="899.07" y="746" width="13.6" height="27" as="geometry" />
        </mxCell>
        <mxCell id="YT4VNNQ23dSSfyn9WDV7-148" value="" style="triangle;whiteSpace=wrap;html=1;rounded=1;shadow=0;dashed=0;strokeColor=default;fontFamily=Helvetica;fontSize=12;fontColor=default;fillColor=#FFFFFF;arcSize=0;rotation=90;" vertex="1" parent="1">
          <mxGeometry x="903" y="765" width="5.93" height="22" as="geometry" />
        </mxCell>
        <mxCell id="YT4VNNQ23dSSfyn9WDV7-153" value="" style="rounded=0;whiteSpace=wrap;html=1;shadow=0;dashed=0;strokeColor=default;fontFamily=Helvetica;fontSize=12;fontColor=default;fillColor=#FFFFFF;" vertex="1" parent="1">
          <mxGeometry x="898.81" y="624" width="13.6" height="106" as="geometry" />
        </mxCell>
        <mxCell id="YT4VNNQ23dSSfyn9WDV7-154" value="" style="rounded=0;whiteSpace=wrap;html=1;shadow=0;dashed=0;strokeColor=default;fontFamily=Helvetica;fontSize=12;fontColor=default;fillColor=#FFFFFF;" vertex="1" parent="1">
          <mxGeometry x="895.6" y="727" width="19.4" height="24.75" as="geometry" />
        </mxCell>
        <mxCell id="YT4VNNQ23dSSfyn9WDV7-159" value="" style="group" vertex="1" connectable="0" parent="1">
          <mxGeometry x="993" y="560" width="30" height="170" as="geometry" />
        </mxCell>
        <mxCell id="YT4VNNQ23dSSfyn9WDV7-156" value="" style="rounded=0;whiteSpace=wrap;html=1;direction=east;flipH=1;" vertex="1" parent="YT4VNNQ23dSSfyn9WDV7-159">
          <mxGeometry x="15.339999999999918" y="43" width="8.12" height="20" as="geometry" />
        </mxCell>
        <mxCell id="YT4VNNQ23dSSfyn9WDV7-157" value="" style="html=1;shadow=0;dashed=0;align=center;verticalAlign=middle;shape=mxgraph.arrows2.bendArrow;dy=7.3;dx=0;notch=0;arrowHead=14.6;rounded=1;fillColor=#FFFFFF;points=[[0,1,0,0,0],[0.01,0.4,0,0,0],[0.04,0.18,0,0,0],[0.07,1,0,0,0],[0.16,0.29,0,0,0],[0.16,0.64,0,0,0],[0.16,1,0,0,0],[0.42,0.14,0,0,0],[0.42,0.28,0,0,0],[0.68,0,0,0,0],[0.68,0.14,0,0,0],[0.68,0.28,0,0,0],[0.68,0.42,0,0,0],[1,0.21,0,0,0]];direction=east;flipH=1;" vertex="1" parent="YT4VNNQ23dSSfyn9WDV7-159">
          <mxGeometry width="27" height="44" as="geometry" />
        </mxCell>
        <mxCell id="YT4VNNQ23dSSfyn9WDV7-158" value="" style="rounded=0;whiteSpace=wrap;html=1;shadow=0;dashed=0;strokeColor=default;fontFamily=Helvetica;fontSize=12;fontColor=default;fillColor=#FFFFFF;direction=east;flipH=1;" vertex="1" parent="YT4VNNQ23dSSfyn9WDV7-159">
          <mxGeometry x="12.6" y="63" width="13.6" height="107" as="geometry" />
        </mxCell>
        <mxCell id="YT4VNNQ23dSSfyn9WDV7-160" value="" style="rounded=0;whiteSpace=wrap;html=1;shadow=0;dashed=0;strokeColor=default;fontFamily=Helvetica;fontSize=12;fontColor=default;fillColor=#FFFFFF;" vertex="1" parent="YT4VNNQ23dSSfyn9WDV7-159">
          <mxGeometry x="5.6" y="94" width="21" height="11" as="geometry" />
        </mxCell>
        <mxCell id="YT4VNNQ23dSSfyn9WDV7-177" value="" style="triangle;whiteSpace=wrap;html=1;rounded=1;shadow=0;dashed=0;strokeColor=default;fontFamily=Helvetica;fontSize=12;fontColor=default;fillColor=#FFFFFF;arcSize=0;rotation=-90;" vertex="1" parent="1">
          <mxGeometry x="1007.07" y="776" width="5.93" height="22" as="geometry" />
        </mxCell>
        <mxCell id="YT4VNNQ23dSSfyn9WDV7-178" value="" style="triangle;whiteSpace=wrap;html=1;rounded=1;shadow=0;dashed=0;strokeColor=default;fontFamily=Helvetica;fontSize=12;fontColor=default;fillColor=#FFFFFF;arcSize=0;rotation=90;" vertex="1" parent="1">
          <mxGeometry x="1007.07" y="764" width="5.93" height="22" as="geometry" />
        </mxCell>
        <mxCell id="YT4VNNQ23dSSfyn9WDV7-181" value="" style="ellipse;whiteSpace=wrap;html=1;aspect=fixed;rounded=1;shadow=0;dashed=0;strokeColor=default;fontFamily=Helvetica;fontSize=12;fontColor=default;fillColor=#FFFFFF;" vertex="1" parent="1">
          <mxGeometry x="1003.63" y="728" width="16.81" height="16.81" as="geometry" />
        </mxCell>
        <mxCell id="YT4VNNQ23dSSfyn9WDV7-182" value="" style="ellipse;whiteSpace=wrap;html=1;aspect=fixed;rounded=1;shadow=0;dashed=0;strokeColor=default;fontFamily=Helvetica;fontSize=12;fontColor=default;fillColor=#FFFFFF;" vertex="1" parent="1">
          <mxGeometry x="1014.81" y="727" width="10" height="10" as="geometry" />
        </mxCell>
        <mxCell id="YT4VNNQ23dSSfyn9WDV7-185" value="" style="rounded=0;whiteSpace=wrap;html=1;shadow=0;dashed=0;strokeColor=default;fontFamily=Helvetica;fontSize=12;fontColor=default;fillColor=#FFFFFF;" vertex="1" parent="1">
          <mxGeometry x="1003.2099999999999" y="758" width="13.6" height="14" as="geometry" />
        </mxCell>
        <mxCell id="YT4VNNQ23dSSfyn9WDV7-186" value="" style="rounded=0;whiteSpace=wrap;html=1;shadow=0;dashed=0;strokeColor=default;fontFamily=Helvetica;fontSize=12;fontColor=default;fillColor=#FFFFFF;" vertex="1" parent="1">
          <mxGeometry x="998.21" y="745" width="24" height="16" as="geometry" />
        </mxCell>
        <mxCell id="YT4VNNQ23dSSfyn9WDV7-188" value="" style="shape=mxgraph.pid.pumps.submersible_pump;html=1;pointerEvents=1;align=center;verticalLabelPosition=bottom;verticalAlign=top;dashed=0;rounded=1;shadow=0;strokeColor=default;fontFamily=Helvetica;fontSize=12;fontColor=default;fillColor=#FFFFFF;rotation=-180;" vertex="1" parent="1">
          <mxGeometry x="945" y="783" width="19" height="10.5" as="geometry" />
        </mxCell>
        <mxCell id="YT4VNNQ23dSSfyn9WDV7-189" value="" style="rounded=1;whiteSpace=wrap;html=1;shadow=0;dashed=0;strokeColor=default;fontFamily=Helvetica;fontSize=12;fontColor=default;fillColor=#FFFFFF;arcSize=50;" vertex="1" parent="1">
          <mxGeometry x="1078" y="712.38" width="10" height="60" as="geometry" />
        </mxCell>
        <mxCell id="YT4VNNQ23dSSfyn9WDV7-190" value="" style="shape=mxgraph.pid.pumps.submersible_pump;html=1;pointerEvents=1;align=center;verticalLabelPosition=bottom;verticalAlign=top;dashed=0;rounded=1;shadow=0;strokeColor=default;fontFamily=Helvetica;fontSize=12;fontColor=default;fillColor=#FFFFFF;rotation=-180;" vertex="1" parent="1">
          <mxGeometry x="1073.5" y="702.88" width="19" height="10.5" as="geometry" />
        </mxCell>
        <mxCell id="YT4VNNQ23dSSfyn9WDV7-193" value="" style="shape=trapezoid;perimeter=trapezoidPerimeter;whiteSpace=wrap;html=1;fixedSize=1;rounded=1;shadow=0;dashed=0;strokeColor=default;fontFamily=Helvetica;fontSize=12;fontColor=default;fillColor=#FFFFFF;arcSize=0;size=10;" vertex="1" parent="1">
          <mxGeometry x="1037" y="852" width="93" height="14" as="geometry" />
        </mxCell>
        <mxCell id="YT4VNNQ23dSSfyn9WDV7-194" value="" style="rounded=0;whiteSpace=wrap;html=1;shadow=0;dashed=0;strokeColor=default;fontFamily=Helvetica;fontSize=12;fontColor=default;fillColor=#FFFFFF;direction=east;flipH=1;" vertex="1" parent="1">
          <mxGeometry x="1147" y="754.5" width="14.5" height="95.5" as="geometry" />
        </mxCell>
        <mxCell id="YT4VNNQ23dSSfyn9WDV7-91" value="" style="html=1;shadow=0;dashed=0;align=center;verticalAlign=middle;shape=mxgraph.arrows2.bendArrow;dy=7.3;dx=0;notch=0;arrowHead=14.6;rounded=1;fillColor=#FFFFFF;points=[[0,1,0,0,0],[0.01,0.4,0,0,0],[0.04,0.18,0,0,0],[0.07,1,0,0,0],[0.16,0.29,0,0,0],[0.16,0.64,0,0,0],[0.16,1,0,0,0],[0.42,0.14,0,0,0],[0.42,0.28,0,0,0],[0.68,0,0,0,0],[0.68,0.14,0,0,0],[0.68,0.28,0,0,0],[0.68,0.42,0,0,0],[1,0.21,0,0,0]];flipV=1;" vertex="1" parent="1">
          <mxGeometry x="1146.75" y="842" width="23.25" height="24" as="geometry" />
        </mxCell>
        <mxCell id="YT4VNNQ23dSSfyn9WDV7-195" value="" style="rounded=0;whiteSpace=wrap;html=1;shadow=0;dashed=0;strokeColor=default;fontFamily=Helvetica;fontSize=12;fontColor=default;fillColor=#FFFFFF;" vertex="1" parent="1">
          <mxGeometry x="1170" y="849" width="10" height="20" as="geometry" />
        </mxCell>
        <mxCell id="YT4VNNQ23dSSfyn9WDV7-198" value="" style="rounded=0;whiteSpace=wrap;html=1;shadow=0;dashed=0;strokeColor=default;fontFamily=Helvetica;fontSize=12;fontColor=default;fillColor=#FFFFFF;" vertex="1" parent="1">
          <mxGeometry x="1193" y="849" width="10" height="20" as="geometry" />
        </mxCell>
        <mxCell id="YT4VNNQ23dSSfyn9WDV7-197" value="" style="rounded=1;whiteSpace=wrap;html=1;shadow=0;dashed=0;strokeColor=default;fontFamily=Helvetica;fontSize=12;fontColor=default;fillColor=#FFFFFF;arcSize=41;" vertex="1" parent="1">
          <mxGeometry x="1178" y="847" width="20" height="25" as="geometry" />
        </mxCell>
        <mxCell id="YT4VNNQ23dSSfyn9WDV7-204" value="" style="verticalLabelPosition=bottom;verticalAlign=top;html=1;shape=mxgraph.basic.plaque;dx=2.14;whiteSpace=wrap;rounded=1;shadow=0;dashed=0;strokeColor=default;fontFamily=Helvetica;fontSize=12;fontColor=default;fillColor=#FFFFFF;" vertex="1" parent="1">
          <mxGeometry x="1260" y="850" width="23" height="20" as="geometry" />
        </mxCell>
        <mxCell id="YT4VNNQ23dSSfyn9WDV7-206" value="" style="rounded=0;whiteSpace=wrap;html=1;shadow=0;dashed=0;strokeColor=default;fontFamily=Helvetica;fontSize=12;fontColor=default;fillColor=#FFFFFF;" vertex="1" parent="1">
          <mxGeometry x="1282.5" y="854.5" width="20" height="11" as="geometry" />
        </mxCell>
        <mxCell id="YT4VNNQ23dSSfyn9WDV7-207" value="" style="rounded=0;whiteSpace=wrap;html=1;shadow=0;dashed=0;strokeColor=default;fontFamily=Helvetica;fontSize=12;fontColor=default;fillColor=#FFFFFF;" vertex="1" parent="1">
          <mxGeometry x="1120.5" y="727.24" width="15" height="27" as="geometry" />
        </mxCell>
        <mxCell id="YT4VNNQ23dSSfyn9WDV7-211" value="" style="rounded=1;whiteSpace=wrap;html=1;shadow=0;dashed=0;strokeColor=default;fontFamily=Helvetica;fontSize=12;fontColor=default;fillColor=#FFFFFF;arcSize=34;" vertex="1" parent="1">
          <mxGeometry x="1102" y="728" width="7" height="24" as="geometry" />
        </mxCell>
      </root>
    </mxGraphModel>
  </diagram>
</mxfile>
